<?xml version="1.0" encoding="iso-8859-1"?>
<!-- Generator: Adobe Illustrator 19.0.0, SVG Export Plug-In . SVG Version: 6.00 Build 0)  -->
<svg version="1.1" id="Capa_1" xmlns="http://www.w3.org/2000/svg" xmlns:xlink="http://www.w3.org/1999/xlink" x="0px" y="0px"
	 viewBox="0 0 512.002 512.002" style="enable-background:new 0 0 512.002 512.002;" xml:space="preserve">
<g>
	<g>
		<path d="M431.139,118.512l-29.146-9.25c0.3-16.2-11.077-30.807-27.518-33.995c-3.906-0.757-7.838-0.827-11.657-0.241
			c-2.433-13.387-12.801-24.403-27.002-27.161c-2.14-0.413-4.328-0.621-6.499-0.621c-4.139,0-8.235,0.779-12.074,2.245
			c-0.247-0.642-0.482-1.288-0.747-1.925l31.545-16.873c3.67-1.963,5.358-6.504,3.506-10.232c-1.917-3.859-6.625-5.346-10.399-3.327
			l-31.824,17.022C298.822,18.409,283.011,7.156,264.3,2.377c-17.111-4.371-35.333-2.677-51.341,4.782
			c-14.637,6.821-26.409,17.709-34.211,31.23l-41.244-13.096c-0.013-0.004-0.025-0.01-0.04-0.014L99.902,13.355
			c-3.806-1.207-7.892,0.73-9.366,4.438l-13.396,33.69c-2.649,6.66-2.408,14.194,0.66,20.671s8.746,11.436,15.578,13.606l7.656,2.43
			c2.549,0.809,5.189,1.208,7.823,1.208c4.427,0,8.837-1.128,12.751-3.337c6.242-3.521,10.785-9.537,12.463-16.505l6.575-27.306
			l31.808,10.1c-0.26,0.771-0.528,1.537-0.764,2.32c-5.963,19.679-3.906,40.5,5.792,58.631
			c6.028,11.271,14.564,20.658,24.884,27.584c-3.129,8.312-5.563,16.873-7.26,25.587c-0.834,4.284,2.075,8.4,6.396,9.013h0.001
			c3.988,0.567,7.748-2.073,8.515-6.027c1.408-7.252,3.381-14.386,5.887-21.337c2.32,0.956,4.697,1.806,7.129,2.543
			c7.382,2.238,14.923,3.346,22.423,3.345c12.496,0,24.879-3.077,36.208-9.137c3.903-2.089,7.566-4.493,10.994-7.152l2.733,16.368
			l-32.103,5.641c-3.809,0.669-6.721,4.004-6.532,7.866c0.228,4.671,4.46,7.938,8.915,7.156l16.971-2.982l6.533,37.016l-17.582,3.09
			c-10.012,1.757-19.75-4.921-21.697-14.897c-0.806-4.121-4.797-6.807-8.921-6.005c-4.121,0.805-6.811,4.799-6.006,8.921
			c3.147,16.106,17.504,27.468,33.433,27.468c1.923,0,3.872-0.166,5.823-0.509l32.397-5.694l7.531,43.87l-84.619,11.421
			l-9.466-20.984c-7.259-16.085-11.428-33.066-12.426-50.577c-0.229-4.023-3.61-7.14-7.639-7.11
			c-4.352,0.033-7.789,3.708-7.54,8.053c1.11,19.35,5.721,38.115,13.743,55.889l10.996,24.376l-37.851,176.906
			c-19.062,3.416-33.579,20.107-33.579,40.137v1.26c0,4.199,3.404,7.604,7.604,7.604h82.083c4.199,0,7.604-3.404,7.604-7.604
			v-33.514l32.025-129.265l32.026,129.265v33.514c0,4.199,3.404,7.604,7.604,7.604h82.082c4.199,0,7.604-3.404,7.604-7.604v-1.26
			c0-20.021-14.503-36.706-33.553-40.132l-22.459-107.252c-0.861-4.11-4.891-6.745-9.001-5.884c-4.11,0.861-6.745,4.891-5.884,9.001
			l21.669,103.479h-34.51l-32.042-129.335c-1.57-6.335-7.01-10.592-13.537-10.592c-6.527,0-11.966,4.257-13.537,10.592
			L229.51,462.351h-34.467l36.552-170.835l85.394-11.526l8.713,41.612c0.861,4.11,4.891,6.745,9.001,5.884l0.129-0.027
			c4.059-0.85,6.689-4.797,5.91-8.871l-19.14-100.062l38.799-6.819c2.183-0.383,4.334-0.982,6.395-1.78
			c10.972-4.248,18.86-13.683,21.1-25.236l11.68-60.242l27.214,8.637c0.766,0.243,1.54,0.359,2.302,0.359
			c3.373,0,6.494-2.264,7.375-5.762C437.46,123.744,435.011,119.741,431.139,118.512z M119.286,65.996
			c-0.703,2.921-2.532,5.343-5.149,6.819c-2.617,1.477-5.638,1.788-8.5,0.88l-7.655-2.43c-2.864-0.909-5.149-2.906-6.437-5.622
			c-1.287-2.715-1.383-5.748-0.274-8.541l10.78-27.107l24.063,7.64L119.286,65.996z M322.322,477.558h41.296
			c11.917,0,21.955,8.19,24.783,19.237h-66.079V477.558z M227.857,477.558v19.237h-66.08c2.829-11.047,12.868-19.237,24.784-19.237
			H227.857z M329.319,62.452c1.208,0,2.428,0.117,3.612,0.345c8.974,1.743,15.163,9.459,15.201,18.272
			c-3.273,2.355-6.056,5.218-8.266,8.471l-17.824-5.659c0.603-6.562,0.344-13.136-0.743-19.594
			C323.797,63.096,326.539,62.452,329.319,62.452z M319.029,99.317c0.041-0.134,0.071-0.269,0.111-0.401l15.181,4.82l-8.733,45.047
			l-15.216,2.673l-4.487-26.87C311.727,117.153,316.206,108.635,319.029,99.317z M187.728,99.195
			c-4.958-12.793-5.525-26.779-1.483-40.118c4.783-15.789,15.431-28.771,29.98-36.553c9.093-4.863,19.028-7.332,29.055-7.332
			c6.018,0,12.071,0.889,17.993,2.684c13.337,4.041,24.657,12.279,32.546,23.503l-63.7,34.073c-0.001,0-0.001,0.001-0.002,0.001
			c-0.001,0-0.001,0.001-0.002,0.001L187.728,99.195z M274.494,131.461c-14.55,7.781-31.26,9.432-47.048,4.647
			c-13.337-4.041-24.657-12.279-32.546-23.503l37.683-20.157l5.059,9.457c1.371,2.561,3.996,4.019,6.712,4.019
			c1.21,0,2.437-0.29,3.579-0.9c3.704-1.981,5.1-6.589,3.119-10.291l-5.059-9.457l21.152-11.313l5.058,9.457
			c1.371,2.562,3.996,4.019,6.712,4.019c1.21,0,2.437-0.29,3.579-0.9c3.703-1.981,5.1-6.588,3.119-10.29l-5.059-9.458l22.437-12.001
			c4.958,12.793,5.525,26.779,1.484,40.117C299.69,110.696,289.042,123.678,274.494,131.461z M386.454,112.226l-13.489,69.572
			c-1.238,6.386-5.597,11.601-11.66,13.949c-1.138,0.44-2.328,0.772-3.535,0.983l-53.616,9.423l-6.533-37.016l35.752-6.283
			c3.104-0.545,5.55-2.948,6.149-6.041l10.032-51.741c0.955-4.928,3.773-9.189,7.933-11.999s9.166-3.83,14.093-2.874
			C381.754,92.17,388.426,102.052,386.454,112.226z"/>
	</g>
</g>
<g>
</g>
<g>
</g>
<g>
</g>
<g>
</g>
<g>
</g>
<g>
</g>
<g>
</g>
<g>
</g>
<g>
</g>
<g>
</g>
<g>
</g>
<g>
</g>
<g>
</g>
<g>
</g>
<g>
</g>
</svg>
